{
    "accessors": [
        {
            "bufferView": 0,
            "componentType": 5123,
            "count": 11760,
            "max": [
                3085
            ],
            "min": [
                0
            ],
            "type": "SCALAR"
        },
        {
            "bufferView": 1,
            "componentType": 5126,
            "count": 3086,
            "max": [
                36.41009521484375,
                19.721715927124023,
                -0.26523101329803467
            ],
            "min": [
                -36.4100456237793,
                -21.39263343811035,
                -137.2712860107422
            ],
            "type": "VEC3"
        },
        {
            "bufferView": 2,
            "componentType": 5126,
            "count": 3086,
            "max": [
                0.99993896484375,
                0.999786376953125,
                1
            ],
            "min": [
                -0.99993896484375,
                -0.999969482421875,
                -0.9952696561813354
            ],
            "type": "VEC3"
        },
        {
            "bufferView": 3,
            "componentType": 5126,
            "count": 3086,
            "max": [
                0.9956809878349304,
                0.9849260002374649
            ],
            "min": [
                0.0069690002128481865,
                0.0113450288772583
            ],
            "type": "VEC2"
        },
        {
            "bufferView": 4,
            "componentType": 5123,
            "count": 3086,
            "max": [
                40,
                40,
                40,
                37
            ],
            "min": [
                0,
                0,
                0,
                0
            ],
            "type": "VEC4"
        },
        {
            "bufferView": 5,
            "componentType": 5126,
            "count": 3086,
            "max": [
                1.0000050067901611,
                1,
                1,
                1
            ],
            "min": [
                0,
                0,
                0,
                0
            ],
            "type": "VEC4"
        },
        {
            "bufferView": 6,
            "componentType": 5123,
            "count": 3086,
            "max": [
                37,
                20,
                0,
                0
            ],
            "min": [
                0,
                0,
                0,
                0
            ],
            "type": "VEC4"
        },
        {
            "bufferView": 7,
            "componentType": 5126,
            "count": 3086,
            "max": [
                1,
                0,
                0,
                0
            ],
            "min": [
                0,
                0,
                0,
                0
            ],
            "type": "VEC4"
        },
        {
            "bufferView": 8,
            "componentType": 5126,
            "count": 41,
            "max": [
                0.4342437982559204,
                1.0011162757873535,
                0.9989467263221741,
                0,
                1.0011159181594849,
                0.996650755405426,
                0.9994614124298096,
                0,
                0.8541024327278137,
                1.0010772943496704,
                0.9986306428909302,
                0,
                89.43721008300781,
                97.14434051513672,
                128.8488311767578,
                1
            ],
            "min": [
                -0.9978072047233582,
                -1.0011160373687744,
                -1.0011160373687744,
                0,
                -1.0004591941833496,
                -0.30778768658638,
                -0.4467436969280243,
                0,
                -0.6737464070320129,
                -1.0011159181594849,
                -0.9980195164680481,
                0,
                -89.42352294921875,
                -140.8106231689453,
                -85.46763610839844,
                1
            ],
            "type": "MAT4"
        },
        {
            "bufferView": 9,
            "componentType": 5126,
            "count": 41,
            "max": [
                0.4347372055053711,
                1.002253770828247,
                1.0000817775726318,
                0,
                1.0022534132003784,
                0.9977831840515137,
                1.0005970001220703,
                0,
                0.8550728559494019,
                1.0022146701812744,
                0.9997652769088745,
                0,
                89.43721008300781,
                97.14434051513672,
                128.8488311767578,
                1
            ],
            "min": [
                -0.9989409446716309,
                -1.002253532409668,
                -1.002253532409668,
                0,
                -1.0015959739685059,
                -0.3081374168395996,
                -0.4472513198852539,
                0,
                -0.6745119690895081,
                -1.0022534132003784,
                -0.9991534948348999,
                0,
                -89.42352294921875,
                -140.8106231689453,
                -85.46763610839844,
                1
            ],
            "type": "MAT4"
        },
        {
            "bufferView": 10,
            "componentType": 5126,
            "count": 41,
            "max": [
                0.4347372055053711,
                1.002253770828247,
                1.0000817775726318,
                0,
                1.0022534132003784,
                0.9977831840515137,
                1.0005970001220703,
                0,
                0.8550728559494019,
                1.0022146701812744,
                0.9997652769088745,
                0,
                89.43721008300781,
                97.14434051513672,
                128.8488311767578,
                1
            ],
            "min": [
                -0.9989409446716309,
                -1.002253532409668,
                -1.002253532409668,
                0,
                -1.0015959739685059,
                -0.3081374168395996,
                -0.4472513198852539,
                0,
                -0.6745119690895081,
                -1.0022534132003784,
                -0.9991534948348999,
                0,
                -89.42352294921875,
                -140.8106231689453,
                -85.46763610839844,
                1
            ],
            "type": "MAT4"
        },
        {
            "bufferView": 11,
            "componentType": 5126,
            "count": 41,
            "max": [
                0.4347372055053711,
                1.002253770828247,
                1.0000817775726318,
                0,
                1.0022534132003784,
                0.9977831840515137,
                1.0005970001220703,
                0,
                0.8550728559494019,
                1.0022146701812744,
                0.9997652769088745,
                0,
                89.43721008300781,
                97.14434051513672,
                128.8488311767578,
                1
            ],
            "min": [
                -0.9989409446716309,
                -1.002253532409668,
                -1.002253532409668,
                0,
                -1.0015959739685059,
                -0.3081374168395996,
                -0.4472513198852539,
                0,
                -0.6745119690895081,
                -1.0022534132003784,
                -0.9991534948348999,
                0,
                -89.42352294921875,
                -140.8106231689453,
                -85.46763610839844,
                1
            ],
            "type": "MAT4"
        },
        {
            "bufferView": 12,
            "componentType": 5126,
            "count": 41,
            "max": [
                0.4347372055053711,
                1.002253770828247,
                1.0000817775726318,
                0,
                1.0022534132003784,
                0.9977831840515137,
                1.0005970001220703,
                0,
                0.8550728559494019,
                1.0022146701812744,
                0.9997652769088745,
                0,
                89.43721008300781,
                97.14434051513672,
                128.8488311767578,
                1
            ],
            "min": [
                -0.9989409446716309,
                -1.002253532409668,
                -1.002253532409668,
                0,
                -1.0015959739685059,
                -0.3081374168395996,
                -0.4472513198852539,
                0,
                -0.6745119690895081,
                -1.0022534132003784,
                -0.9991534948348999,
                0,
                -89.42352294921875,
                -140.8106231689453,
                -85.46763610839844,
                1
            ],
            "type": "MAT4"
        }
    ],
    "asset": {
        "generator": "Khronos Blender glTF 2.0 exporter",
        "version": "2.0"
    },
    "bufferViews": [
        {
            "buffer": 0,
            "byteLength": 23520,
            "byteOffset": 0,
            "target": 34963
        },
        {
            "buffer": 0,
            "byteLength": 37032,
            "byteOffset": 23520,
            "target": 34962
        },
        {
            "buffer": 0,
            "byteLength": 37032,
            "byteOffset": 60552,
            "target": 34962
        },
        {
            "buffer": 0,
            "byteLength": 24688,
            "byteOffset": 97584,
            "target": 34962
        },
        {
            "buffer": 0,
            "byteLength": 24688,
            "byteOffset": 122272,
            "target": 34962
        },
        {
            "buffer": 0,
            "byteLength": 49376,
            "byteOffset": 146960,
            "target": 34962
        },
        {
            "buffer": 0,
            "byteLength": 24688,
            "byteOffset": 196336,
            "target": 34962
        },
        {
            "buffer": 0,
            "byteLength": 49376,
            "byteOffset": 221024,
            "target": 34962
        },
        {
            "buffer": 0,
            "byteLength": 2624,
            "byteOffset": 270400
        },
        {
            "buffer": 0,
            "byteLength": 2624,
            "byteOffset": 273024
        },
        {
            "buffer": 0,
            "byteLength": 2624,
            "byteOffset": 275648
        },
        {
            "buffer": 0,
            "byteLength": 2624,
            "byteOffset": 278272
        },
        {
            "buffer": 0,
            "byteLength": 2624,
            "byteOffset": 280896
        }
    ],
    "buffers": [
        {
            "byteLength": 294024,
            "uri": "saber-maid-dress.bin"
        }
    ],
    "images": [
        {
            "uri": "saber.png"
        }
    ],
    "materials": [
        {
            "name": "F010_SaberSG.001",
            "pbrMetallicRoughness": {
                "baseColorFactor": [
                    1,
                    1,
                    1,
                    1
                ],
                "baseColorTexture": {
                    "index": 0
                },
                "metallicFactor": 0
            },
            "doubleSided": true
        }
    ],
    "meshes": [
        {
            "name": "F010_Saber",
            "primitives": [
                {
                    "attributes": {
                        "NORMAL": 2,
                        "POSITION": 1,
                        "TEXCOORD_0": 3
                    },
                    "indices": 0,
                    "material": 0,
                    "extensions": {
                        "gl_avatar": {
                            "attributes": {
                                "JOINTS_0": 4,
                                "WEIGHTS_0": 5,
                                "JOINTS_1": 6,
                                "WEIGHTS_1": 7
                            }
                        }
                    }
                }
            ]
        }
    ],
    "nodes": [
        {
            "children": [
                1
            ],
            "name": "Bip001",
            "rotation": [
                -1.5454320489993734e-8,
                -0.7071062922477722,
                1.54543009500685e-8,
                0.7071073055267334
            ],
            "scale": [
                0.009999998845160007,
                0.009999999776482582,
                0.009999998845160007
            ],
            "translation": [
                0,
                0.9365723133087158,
                0.003923905547708273
            ]
        },
        {
            "mesh": 0,
            "name": "Saber_maid_dress",
            "rotation": [
                0.5000004172325134,
                0.49999961256980896,
                -0.4999997019767761,
                0.5000002980232239
            ],
            "scale": [
                1.0022534132003784,
                1.0022534132003784,
                1.0022532939910889
            ],
            "translation": [
                -0.3923947811126709,
                -93.65723419189453,
                -5.441732469080307e-7
            ],
            "extensions": {
                "gl_avatar": {
                    "skin": {
                        "name": "main",
                        "inverseBindMatrices": 9
                    }
                }
            }
        }
    ],
    "samplers": [
        {}
    ],
    "scene": 0,
    "scenes": [
        {
            "name": "Scene",
            "nodes": [
                1,
                0
            ]
        }
    ],
    "textures": [
        {
            "sampler": 0,
            "source": 0
        }
    ],
    "extensionsUsed": [
        "gl_avatar"
    ],
    "extensions": {
        "gl_avatar": {
            "visibility": [
                0, 
                1, 1, 1, 0, 0, 
                0, 0, 1, 1, 1, 
                1, 1, 1, 1, 1,
                1, 1, 1, 1, 1,
                1, 1, 1, 0, 0,
                0, 0, 0, 0, 0,
                0, 0, 0, 1, 1,
                0, 0, 1, 1, 1,
                0, 0, 0, 0, 0,
                0, 0, 0, 0, 0,
                0, 0, 0, 0, 0,
                0, 0, 0, 0
            ],
            "type": "skin"
        }
    }
}