{
    "extensionsUsed": [
        "gl_avatar"
    ],
    "extensions": {
        "gl_avatar": {
            "visibility": [
                0, 
                0, 0, 1, 1, 1, 
                1, 1, 1, 1, 1, 
                1, 1, 1, 1, 1,
                1, 1, 1, 1, 1,
                1, 1, 1, 1, 1,
                1, 1, 1, 1, 1,
                1, 1, 1, 1, 1,
                1, 1, 1, 1, 1,
                1, 1, 1, 1, 1,
                1, 1, 1, 1, 1,
                1, 1, 1, 1, 1,
                1, 1, 1, 1
            ],
            "type": "skin"
        }
    },
    "accessors" : [
        {
            "bufferView" : 0, 
            "componentType" : 5123, 
            "count" : 4038, 
            "max" : [
                1108
            ], 
            "min" : [
                0
            ], 
            "type" : "SCALAR"
        }, 
        {
            "bufferView" : 1, 
            "componentType" : 5126, 
            "count" : 1109, 
            "max" : [
                11.429484367370605, 
                10.030672073364258, 
                -130.6600341796875
            ], 
            "min" : [
                -11.429344177246094, 
                -14.700023651123047, 
                -164.35842895507812
            ], 
            "type" : "VEC3"
        }, 
        {
            "bufferView" : 2, 
            "componentType" : 5126, 
            "count" : 1109, 
            "max" : [
                0.9987792372703552, 
                0.999847412109375, 
                0.999542236328125
            ], 
            "min" : [
                -0.9987792372703552, 
                -0.999237060546875, 
                -0.99981689453125
            ], 
            "type" : "VEC3"
        }, 
        {
            "bufferView" : 3, 
            "componentType" : 5126, 
            "count" : 1109, 
            "max" : [
                0.9941849112510681, 
                0.6996400058269501
            ], 
            "min" : [
                0.024950888007879257, 
                0.007812023162841797
            ], 
            "type" : "VEC2"
        }, 
        {
            "bufferView" : 4, 
            "componentType" : 5123, 
            "count" : 1109, 
            "max" : [
                18, 
                20, 
                20, 
                20
            ], 
            "min" : [
                2, 
                0, 
                0, 
                0
            ], 
            "type" : "VEC4"
        }, 
        {
            "bufferView" : 5, 
            "componentType" : 5126, 
            "count" : 1109, 
            "max" : [
                1.0, 
                1.0, 
                1.0, 
                1.0
            ], 
            "min" : [
                0.0, 
                0.0, 
                0.0, 
                0.0
            ], 
            "type" : "VEC4"
        }, 
        {
            "bufferView" : 6, 
            "componentType" : 5123, 
            "count" : 1109, 
            "max" : [
                20, 
                0, 
                0, 
                0
            ], 
            "min" : [
                0, 
                0, 
                0, 
                0
            ], 
            "type" : "VEC4"
        }, 
        {
            "bufferView" : 7, 
            "componentType" : 5126, 
            "count" : 1109, 
            "max" : [
                1.0, 
                0.0, 
                0.0, 
                0.0
            ], 
            "min" : [
                0.0, 
                0.0, 
                0.0, 
                0.0
            ], 
            "type" : "VEC4"
        }, 
        {
            "bufferView" : 8, 
            "componentType" : 5126, 
            "count" : 41, 
            "max" : [
                0.4342437982559204, 
                1.0011162757873535, 
                0.9989467263221741, 
                0.0, 
                1.0011159181594849, 
                0.996650755405426, 
                0.9994614124298096, 
                0.0, 
                0.8541024327278137, 
                1.0010772943496704, 
                0.9986306428909302, 
                0.0, 
                89.43721008300781, 
                97.14434051513672, 
                128.8488311767578, 
                1.0
            ], 
            "min" : [
                -0.9978072047233582, 
                -1.0011160373687744, 
                -1.0011160373687744, 
                0.0, 
                -1.0004591941833496, 
                -0.30778768658638, 
                -0.4467436969280243, 
                0.0, 
                -0.6737464070320129, 
                -1.0011159181594849, 
                -0.9980195164680481, 
                0.0, 
                -89.42352294921875, 
                -140.8106231689453, 
                -85.46763610839844, 
                1.0
            ], 
            "type" : "MAT4"
        }, 
        {
            "bufferView" : 9, 
            "componentType" : 5126, 
            "count" : 41, 
            "max" : [
                0.4342437982559204, 
                1.0011162757873535, 
                0.9989467263221741, 
                0.0, 
                1.0011159181594849, 
                0.996650755405426, 
                0.9994614124298096, 
                0.0, 
                0.8541024327278137, 
                1.0010772943496704, 
                0.9986306428909302, 
                0.0, 
                89.43721008300781, 
                97.14434051513672, 
                128.8488311767578, 
                1.0
            ], 
            "min" : [
                -0.9978072047233582, 
                -1.0011160373687744, 
                -1.0011160373687744, 
                0.0, 
                -1.0004591941833496, 
                -0.30778768658638, 
                -0.4467436969280243, 
                0.0, 
                -0.6737464070320129, 
                -1.0011159181594849, 
                -0.9980195164680481, 
                0.0, 
                -89.42352294921875, 
                -140.8106231689453, 
                -85.46763610839844, 
                1.0
            ], 
            "type" : "MAT4"
        }, 
        {
            "bufferView" : 10, 
            "componentType" : 5126, 
            "count" : 41, 
            "max" : [
                0.4342437982559204, 
                1.0011162757873535, 
                0.9989467263221741, 
                0.0, 
                1.0011159181594849, 
                0.996650755405426, 
                0.9994614124298096, 
                0.0, 
                0.8541024327278137, 
                1.0010772943496704, 
                0.9986306428909302, 
                0.0, 
                89.43721008300781, 
                97.14434051513672, 
                128.8488311767578, 
                1.0
            ], 
            "min" : [
                -0.9978072047233582, 
                -1.0011160373687744, 
                -1.0011160373687744, 
                0.0, 
                -1.0004591941833496, 
                -0.30778768658638, 
                -0.4467436969280243, 
                0.0, 
                -0.6737464070320129, 
                -1.0011159181594849, 
                -0.9980195164680481, 
                0.0, 
                -89.42352294921875, 
                -140.8106231689453, 
                -85.46763610839844, 
                1.0
            ], 
            "type" : "MAT4"
        }
    ], 
    "asset" : {
        "generator" : "Khronos Blender glTF 2.0 exporter", 
        "version" : "2.0"
    }, 
    "bufferViews" : [
        {
            "buffer" : 0, 
            "byteLength" : 8076, 
            "byteOffset" : 0, 
            "target" : 34963
        }, 
        {
            "buffer" : 0, 
            "byteLength" : 13308, 
            "byteOffset" : 8076, 
            "target" : 34962
        }, 
        {
            "buffer" : 0, 
            "byteLength" : 13308, 
            "byteOffset" : 21384, 
            "target" : 34962
        }, 
        {
            "buffer" : 0, 
            "byteLength" : 8872, 
            "byteOffset" : 34692, 
            "target" : 34962
        }, 
        {
            "buffer" : 0, 
            "byteLength" : 8872, 
            "byteOffset" : 43564, 
            "target" : 34962
        }, 
        {
            "buffer" : 0, 
            "byteLength" : 17744, 
            "byteOffset" : 52436, 
            "target" : 34962
        }, 
        {
            "buffer" : 0, 
            "byteLength" : 8872, 
            "byteOffset" : 70180, 
            "target" : 34962
        }, 
        {
            "buffer" : 0, 
            "byteLength" : 17744, 
            "byteOffset" : 79052, 
            "target" : 34962
        }, 
        {
            "buffer" : 0, 
            "byteLength" : 2624, 
            "byteOffset" : 96796
        }, 
        {
            "buffer" : 0, 
            "byteLength" : 2624, 
            "byteOffset" : 99420
        }, 
        {
            "buffer" : 0, 
            "byteLength" : 2624, 
            "byteOffset" : 102044
        }
    ], 
    "buffers" : [
        {
            "byteLength" : 115172, 
            "uri" : "saber-maid-hair.bin"
        }
    ], 
    "images" : [
        {
            "uri" : "saber_01_with_hair.png"
        }
    ], 
    "materials" : [
        {
            "name" : "Saber_Maid_Hair", 
            "pbrMetallicRoughness" : {
                "baseColorFactor" : [
                    1.0, 
                    1.0, 
                    1.0, 
                    1.0
                ], 
                "baseColorTexture" : {
                    "index" : 0
                }, 
                "metallicFactor" : 0.0
            },
            "doubleSided": true
        }
    ], 
    "meshes" : [
        {
            "name" : "F010_Saber.002", 
            "primitives" : [
                {
                    "attributes" : {
                        "NORMAL" : 2, 
                        "POSITION" : 1, 
                        "TEXCOORD_0" : 3
                    }, 
                    "indices" : 0, 
                    "material" : 0,
                    "extensions": {
                        "gl_avatar": {
                            "attributes": {
                                "JOINTS_0" : 4, 
                                "JOINTS_1" : 6, 
                                "WEIGHTS_0" : 5, 
                                "WEIGHTS_1" : 7
                            }
                        }
                    }
                }
            ]
        }
    ], 
    "nodes" : [
        {
            "children" : [
                1
            ], 
            "name" : "Bip001", 
            "rotation" : [
                -1.5454320489993734e-08, 
                -0.7071062922477722, 
                1.54543009500685e-08, 
                0.7071073055267334
            ], 
            "scale" : [
                0.009999998845160007, 
                0.009999999776482582, 
                0.009999998845160007
            ], 
            "translation" : [
                0.0, 
                0.9365723133087158, 
                0.003923905547708273
            ]
        }, 
        {
            "mesh" : 0, 
            "name" : "F010_Saber_Hair.001", 
            "rotation" : [
                0.5000004172325134, 
                0.49999961256980896, 
                -0.4999997019767761, 
                0.5000002980232239
            ], 
            "scale" : [
                1.0011159181594849, 
                1.0011159181594849, 
                1.0011157989501953
            ], 
            "translation" : [
                -0.3923948109149933, 
                -93.65723419189453, 
                -5.441733037514496e-07
            ],
            "extensions": {
                "gl_avatar": {
                    "skin": {
                        "name": "main",
                        "inverseBindMatrices": 9
                    }
                }
            }
        }
    ], 
    "scene" : 0, 
    "scenes" : [
        {
            "name" : "Scene", 
            "nodes" : [
                0
            ]
        }
    ], 
    "samplers" : [
        {}
    ], 
    "textures" : [
        {
            "sampler" : 0, 
            "source" : 0
        }
    ]
}
